<mxfile host="app.diagrams.net" modified="2024-04-18T09:00:51.034Z" agent="Mozilla/5.0 (Windows NT 10.0; Win64; x64) AppleWebKit/537.36 (KHTML, like Gecko) Chrome/123.0.0.0 Safari/537.36" etag="SyBNB5xaHfX0FNZotyMf" version="24.2.5" type="device">
  <diagram name="Page-1" id="9f46799a-70d6-7492-0946-bef42562c5a5">
    <mxGraphModel dx="1050" dy="522" grid="1" gridSize="10" guides="1" tooltips="1" connect="1" arrows="1" fold="1" page="1" pageScale="1" pageWidth="1100" pageHeight="850" background="none" math="0" shadow="0">
      <root>
        <mxCell id="0" />
        <mxCell id="1" parent="0" />
        <mxCell id="0gRP3cGSOdznP03yixPk-5" value="DangNhap" style="swimlane;fontStyle=1;align=center;verticalAlign=top;childLayout=stackLayout;horizontal=1;startSize=26;horizontalStack=0;resizeParent=1;resizeParentMax=0;resizeLast=0;collapsible=1;marginBottom=0;whiteSpace=wrap;html=1;" vertex="1" parent="1">
          <mxGeometry x="130" y="70" width="420" height="300" as="geometry" />
        </mxCell>
        <mxCell id="0gRP3cGSOdznP03yixPk-9" value="- tbxPhoneNumber: TextBox&lt;div&gt;&lt;br&gt;&lt;/div&gt;" style="text;strokeColor=none;fillColor=none;align=left;verticalAlign=top;spacingLeft=4;spacingRight=4;overflow=hidden;rotatable=0;points=[[0,0.5],[1,0.5]];portConstraint=eastwest;whiteSpace=wrap;html=1;" vertex="1" parent="0gRP3cGSOdznP03yixPk-5">
          <mxGeometry y="26" width="420" height="26" as="geometry" />
        </mxCell>
        <mxCell id="0gRP3cGSOdznP03yixPk-10" value="- tbxPassword: TextBox&lt;div&gt;&lt;br&gt;&lt;/div&gt;" style="text;strokeColor=none;fillColor=none;align=left;verticalAlign=top;spacingLeft=4;spacingRight=4;overflow=hidden;rotatable=0;points=[[0,0.5],[1,0.5]];portConstraint=eastwest;whiteSpace=wrap;html=1;" vertex="1" parent="0gRP3cGSOdznP03yixPk-5">
          <mxGeometry y="52" width="420" height="26" as="geometry" />
        </mxCell>
        <mxCell id="0gRP3cGSOdznP03yixPk-11" value="- cbxShowPassword: CheckBox&lt;div&gt;&lt;br&gt;&lt;/div&gt;" style="text;strokeColor=none;fillColor=none;align=left;verticalAlign=top;spacingLeft=4;spacingRight=4;overflow=hidden;rotatable=0;points=[[0,0.5],[1,0.5]];portConstraint=eastwest;whiteSpace=wrap;html=1;" vertex="1" parent="0gRP3cGSOdznP03yixPk-5">
          <mxGeometry y="78" width="420" height="32" as="geometry" />
        </mxCell>
        <mxCell id="0gRP3cGSOdznP03yixPk-18" value="- btnLogin: Button&lt;div&gt;&lt;br&gt;&lt;/div&gt;" style="text;strokeColor=none;fillColor=none;align=left;verticalAlign=top;spacingLeft=4;spacingRight=4;overflow=hidden;rotatable=0;points=[[0,0.5],[1,0.5]];portConstraint=eastwest;whiteSpace=wrap;html=1;" vertex="1" parent="0gRP3cGSOdznP03yixPk-5">
          <mxGeometry y="110" width="420" height="26" as="geometry" />
        </mxCell>
        <mxCell id="0gRP3cGSOdznP03yixPk-6" value="- lblForgetPassword: Label&lt;div&gt;&lt;br&gt;&lt;/div&gt;" style="text;strokeColor=none;fillColor=none;align=left;verticalAlign=top;spacingLeft=4;spacingRight=4;overflow=hidden;rotatable=0;points=[[0,0.5],[1,0.5]];portConstraint=eastwest;whiteSpace=wrap;html=1;" vertex="1" parent="0gRP3cGSOdznP03yixPk-5">
          <mxGeometry y="136" width="420" height="26" as="geometry" />
        </mxCell>
        <mxCell id="0gRP3cGSOdznP03yixPk-7" value="" style="line;strokeWidth=1;fillColor=none;align=left;verticalAlign=middle;spacingTop=-1;spacingLeft=3;spacingRight=3;rotatable=0;labelPosition=right;points=[];portConstraint=eastwest;strokeColor=inherit;" vertex="1" parent="0gRP3cGSOdznP03yixPk-5">
          <mxGeometry y="162" width="420" height="8" as="geometry" />
        </mxCell>
        <mxCell id="0gRP3cGSOdznP03yixPk-16" value="+ DangNhap()" style="text;strokeColor=none;fillColor=none;align=left;verticalAlign=top;spacingLeft=4;spacingRight=4;overflow=hidden;rotatable=0;points=[[0,0.5],[1,0.5]];portConstraint=eastwest;whiteSpace=wrap;html=1;" vertex="1" parent="0gRP3cGSOdznP03yixPk-5">
          <mxGeometry y="170" width="420" height="26" as="geometry" />
        </mxCell>
        <mxCell id="0gRP3cGSOdznP03yixPk-17" value="-Form1_Load( object sender, EventArgs e ): void" style="text;strokeColor=none;fillColor=none;align=left;verticalAlign=top;spacingLeft=4;spacingRight=4;overflow=hidden;rotatable=0;points=[[0,0.5],[1,0.5]];portConstraint=eastwest;whiteSpace=wrap;html=1;" vertex="1" parent="0gRP3cGSOdznP03yixPk-5">
          <mxGeometry y="196" width="420" height="26" as="geometry" />
        </mxCell>
        <mxCell id="0gRP3cGSOdznP03yixPk-19" value="-btnLogin_Click( object sender, EventArgs e ): void" style="text;strokeColor=none;fillColor=none;align=left;verticalAlign=top;spacingLeft=4;spacingRight=4;overflow=hidden;rotatable=0;points=[[0,0.5],[1,0.5]];portConstraint=eastwest;whiteSpace=wrap;html=1;" vertex="1" parent="0gRP3cGSOdznP03yixPk-5">
          <mxGeometry y="222" width="420" height="26" as="geometry" />
        </mxCell>
        <mxCell id="0gRP3cGSOdznP03yixPk-20" value="-cbkShowPassword_CheckedChanged( object sender, EventArgs e ): void" style="text;strokeColor=none;fillColor=none;align=left;verticalAlign=top;spacingLeft=4;spacingRight=4;overflow=hidden;rotatable=0;points=[[0,0.5],[1,0.5]];portConstraint=eastwest;whiteSpace=wrap;html=1;" vertex="1" parent="0gRP3cGSOdznP03yixPk-5">
          <mxGeometry y="248" width="420" height="26" as="geometry" />
        </mxCell>
        <mxCell id="0gRP3cGSOdznP03yixPk-8" value="-lblForgetPassword_Click( object sender, EventArgs e ): void" style="text;strokeColor=none;fillColor=none;align=left;verticalAlign=top;spacingLeft=4;spacingRight=4;overflow=hidden;rotatable=0;points=[[0,0.5],[1,0.5]];portConstraint=eastwest;whiteSpace=wrap;html=1;" vertex="1" parent="0gRP3cGSOdznP03yixPk-5">
          <mxGeometry y="274" width="420" height="26" as="geometry" />
        </mxCell>
        <mxCell id="0gRP3cGSOdznP03yixPk-21" value="BacSi" style="swimlane;fontStyle=1;align=center;verticalAlign=top;childLayout=stackLayout;horizontal=1;startSize=26;horizontalStack=0;resizeParent=1;resizeParentMax=0;resizeLast=0;collapsible=1;marginBottom=0;whiteSpace=wrap;html=1;" vertex="1" parent="1">
          <mxGeometry x="620" y="70" width="160" height="86" as="geometry" />
        </mxCell>
        <mxCell id="0gRP3cGSOdznP03yixPk-22" value="+ field: type" style="text;strokeColor=none;fillColor=none;align=left;verticalAlign=top;spacingLeft=4;spacingRight=4;overflow=hidden;rotatable=0;points=[[0,0.5],[1,0.5]];portConstraint=eastwest;whiteSpace=wrap;html=1;" vertex="1" parent="0gRP3cGSOdznP03yixPk-21">
          <mxGeometry y="26" width="160" height="26" as="geometry" />
        </mxCell>
        <mxCell id="0gRP3cGSOdznP03yixPk-23" value="" style="line;strokeWidth=1;fillColor=none;align=left;verticalAlign=middle;spacingTop=-1;spacingLeft=3;spacingRight=3;rotatable=0;labelPosition=right;points=[];portConstraint=eastwest;strokeColor=inherit;" vertex="1" parent="0gRP3cGSOdznP03yixPk-21">
          <mxGeometry y="52" width="160" height="8" as="geometry" />
        </mxCell>
        <mxCell id="0gRP3cGSOdznP03yixPk-24" value="+ method(type): type" style="text;strokeColor=none;fillColor=none;align=left;verticalAlign=top;spacingLeft=4;spacingRight=4;overflow=hidden;rotatable=0;points=[[0,0.5],[1,0.5]];portConstraint=eastwest;whiteSpace=wrap;html=1;" vertex="1" parent="0gRP3cGSOdznP03yixPk-21">
          <mxGeometry y="60" width="160" height="26" as="geometry" />
        </mxCell>
      </root>
    </mxGraphModel>
  </diagram>
</mxfile>
